<svg width="44" height="43" viewBox="0 0 44 43" fill="none" xmlns="http://www.w3.org/2000/svg">
<path opacity="0.39" d="M22.8799 34.9302C31.7855 34.9302 39.0049 27.7108 39.0049 18.8052C39.0049 9.89958 31.7855 2.68018 22.8799 2.68018C13.9743 2.68018 6.75488 9.89958 6.75488 18.8052C6.75488 27.7108 13.9743 34.9302 22.8799 34.9302Z" fill="white"/>
<path d="M22.0439 14.6594L22.0439 14.6594C22.0897 14.6594 22.102 14.6594 22.0439 14.6594L22.0439 21.5003C20.2522 21.826 16.5712 21.8912 16.1803 19.5457C15.6916 16.6139 16.6689 14.6597 19.6007 14.6595C21.2866 14.6594 21.8953 14.6594 22.0439 14.6594Z" fill="#ECC4A0"/>
<path d="M21.9229 28.3406V28.3406C21.8771 28.3406 21.8648 28.3406 21.9229 28.3406V21.4997C23.7146 21.174 27.3956 21.1088 27.7865 23.4543C28.2752 26.3861 27.2979 28.3403 24.3661 28.3405C22.6802 28.3406 22.0714 28.3406 21.9229 28.3406Z" fill="#ECC4A0"/>
<mask id="path-4-inside-1_910_119" fill="white">
<path d="M42.3825 21.5C42.9571 21.5 43.4255 21.0339 43.3977 20.46C43.2077 16.5351 41.9449 12.7299 39.7375 9.46302C37.3356 5.90826 33.9252 3.15334 29.9448 1.55262C25.9645 -0.0480997 21.5963 -0.421422 17.402 0.48067C13.2078 1.38276 9.37934 3.51902 6.40909 6.61466C3.43884 9.71031 1.46263 13.6238 0.734647 17.8517C0.0066608 22.0797 0.56019 26.4287 2.32404 30.3395C4.08789 34.2503 6.98139 37.5439 10.6324 39.7969C13.9877 41.8674 17.8419 42.9718 21.7713 42.9995C22.3458 43.0035 22.7921 42.5163 22.7684 41.9422V41.9422C22.7446 41.3682 22.2598 40.925 21.6853 40.9179C18.171 40.875 14.727 39.8787 11.725 38.0262C8.42732 35.9913 5.81383 33.0164 4.22067 29.4841C2.62752 25.9517 2.12755 22.0236 2.78509 18.2048C3.44263 14.386 5.22759 10.8512 7.9104 8.05516C10.5932 5.25909 14.0512 3.32957 17.8395 2.51477C21.6279 1.69998 25.5734 2.03717 29.1685 3.48299C32.7637 4.9288 35.8441 7.41712 38.0135 10.6279C39.9884 13.5508 41.1262 16.9506 41.3144 20.4601C41.3451 21.0339 41.808 21.5 42.3825 21.5V21.5Z"/>
</mask>
<path d="M42.3825 21.5C42.9571 21.5 43.4255 21.0339 43.3977 20.46C43.2077 16.5351 41.9449 12.7299 39.7375 9.46302C37.3356 5.90826 33.9252 3.15334 29.9448 1.55262C25.9645 -0.0480997 21.5963 -0.421422 17.402 0.48067C13.2078 1.38276 9.37934 3.51902 6.40909 6.61466C3.43884 9.71031 1.46263 13.6238 0.734647 17.8517C0.0066608 22.0797 0.56019 26.4287 2.32404 30.3395C4.08789 34.2503 6.98139 37.5439 10.6324 39.7969C13.9877 41.8674 17.8419 42.9718 21.7713 42.9995C22.3458 43.0035 22.7921 42.5163 22.7684 41.9422V41.9422C22.7446 41.3682 22.2598 40.925 21.6853 40.9179C18.171 40.875 14.727 39.8787 11.725 38.0262C8.42732 35.9913 5.81383 33.0164 4.22067 29.4841C2.62752 25.9517 2.12755 22.0236 2.78509 18.2048C3.44263 14.386 5.22759 10.8512 7.9104 8.05516C10.5932 5.25909 14.0512 3.32957 17.8395 2.51477C21.6279 1.69998 25.5734 2.03717 29.1685 3.48299C32.7637 4.9288 35.8441 7.41712 38.0135 10.6279C39.9884 13.5508 41.1262 16.9506 41.3144 20.4601C41.3451 21.0339 41.808 21.5 42.3825 21.5V21.5Z" stroke="black" stroke-width="6" mask="url(#path-4-inside-1_910_119)"/>
<path d="M21.9209 10.75V32.25" stroke="black" stroke-width="1.36667" stroke-linecap="round" stroke-linejoin="round"/>
<path d="M26.8076 14.6592H19.4781C18.5709 14.6592 17.7009 15.0195 17.0594 15.661C16.418 16.3025 16.0576 17.1725 16.0576 18.0796C16.0576 18.9868 16.418 19.8568 17.0594 20.4983C17.7009 21.1397 18.5709 21.5001 19.4781 21.5001H24.3644C25.2716 21.5001 26.1416 21.8605 26.7831 22.5019C27.4245 23.1434 27.7849 24.0134 27.7849 24.9205C27.7849 25.8277 27.4245 26.6977 26.7831 27.3392C26.1416 27.9806 25.2716 28.341 24.3644 28.341H16.0576" stroke="black" stroke-width="1.36667" stroke-linecap="round" stroke-linejoin="round"/>
</svg>
