<svg width="36" height="55" viewBox="0 0 36 55" fill="none" xmlns="http://www.w3.org/2000/svg">
<g clip-path="url(#clip0_911_323)">
<path opacity="0.39" d="M18 49C27.9411 49 36 40.7173 36 30.5C36 20.2827 27.9411 12 18 12C8.05887 12 0 20.2827 0 30.5C0 40.7173 8.05887 49 18 49Z" fill="white"/>
<path d="M11.5245 15.6918L7.10938 2.64714C7.10938 2.64714 16.1403 -3.17279 28.9843 2.44645L24.1678 15.2904C19.3513 14.889 15.1369 15.0897 11.5245 15.6918Z" fill="url(#paint0_linear_911_323)"/>
<path d="M24.5699 16.0929C24.5699 16.0929 25.774 16.0929 26.5768 18.3005C27.3795 20.3073 27.9816 24.3211 28.1823 25.5252C28.1823 26.3279 27.9816 26.93 27.9816 27.1307C27.9816 27.5321 28.383 31.9472 28.383 33.5527C28.383 34.9575 28.383 35.3589 28.5837 35.7602C28.7843 36.1616 28.7843 36.1616 28.7843 37.165C28.7843 37.9678 29.1857 49.2063 22.3624 52.8186C18.75 54.6248 13.7328 53.6214 11.7259 51.6145C9.71908 49.6076 7.71221 45.7946 7.11015 38.9712C6.50809 32.1479 8.51496 20.3073 9.71908 17.6984C10.7225 15.8922 11.7259 16.0929 11.7259 16.0929C11.7259 16.0929 11.9266 15.6915 12.328 15.4909C12.7294 15.4909 13.1308 15.4909 13.1308 15.4909C13.1308 15.2902 13.1308 15.2902 13.5321 15.2902C13.7328 15.2902 22.563 15.0895 22.7637 15.2902C22.9644 15.4909 23.1651 15.4909 23.3658 15.2902C23.5665 15.0895 23.9679 15.0895 24.1685 15.2902C24.3692 15.6915 24.3692 15.8922 24.5699 16.0929Z" stroke="black" stroke-width="1.04979" stroke-miterlimit="10"/>
<path d="M13.7314 24.3209C13.7314 22.1133 15.7383 20.1064 17.9459 20.1064C20.3541 20.1064 22.1603 21.9126 22.1603 24.3209C22.1603 25.3243 21.9596 26.1271 21.3576 26.7291C21.3576 26.7291 20.9562 27.5319 20.5548 27.7326C20.1534 28.1339 19.7521 28.736 19.7521 28.736H16.1397C15.939 28.3346 14.5342 26.7291 14.5342 26.7291C14.1328 26.1271 13.7314 25.3243 13.7314 24.3209Z" fill="#ECC4A0" stroke="black" stroke-width="1.04979" stroke-miterlimit="10"/>
<path d="M16.3418 29.1372C16.3418 28.9365 16.3418 28.9365 16.5425 28.9365H19.9542C19.9542 28.9365 18.3487 30.7427 18.9507 34.3551C19.3521 35.9606 19.7535 36.1613 19.5528 37.3654C19.3521 37.9674 18.75 38.3688 18.148 38.3688C17.5459 38.3688 16.9439 37.9674 16.7432 37.3654C16.3418 36.1613 16.9439 35.9606 17.3452 34.3551C17.7466 31.5455 16.7432 29.94 16.3418 29.1372Z" stroke="black" stroke-width="1.04979" stroke-miterlimit="10"/>
<path d="M28.7837 35.3579C28.9844 35.3579 29.5864 35.5586 29.5864 35.5586C29.5864 35.5586 29.7871 35.7593 29.7871 35.3579C29.7871 34.9565 29.5864 31.3442 29.5864 31.3442H29.3858C29.3858 31.3442 29.3858 31.1435 29.5864 31.1435C29.5864 31.1435 29.1851 27.1297 29.1851 26.929C29.1851 26.7284 28.7837 26.929 28.583 26.929" stroke="black" stroke-width="0.501717" stroke-miterlimit="10"/>
<path d="M24.5696 16.0918C20.5558 17.4966 16.1407 17.4966 11.7256 16.0918" stroke="black" stroke-width="1.04979" stroke-miterlimit="10"/>
<path d="M11.7252 16.094L7.10938 3.25" stroke="black" stroke-width="1.04979" stroke-miterlimit="10" stroke-linecap="round" stroke-linejoin="round"/>
<path d="M23.9678 16.094L28.7843 3.25" stroke="black" stroke-width="1.04979" stroke-miterlimit="10" stroke-linecap="round" stroke-linejoin="round"/>
</g>
<defs>
<linearGradient id="paint0_linear_911_323" x1="17.9234" y1="14.8766" x2="17.9234" y2="0.588289" gradientUnits="userSpaceOnUse">
<stop stop-color="#F7B5A1"/>
<stop offset="0.8855" stop-color="#FEBBA6" stop-opacity="0"/>
</linearGradient>
<clipPath id="clip0_911_323">
<rect width="36" height="55" fill="white"/>
</clipPath>
</defs>
</svg>
