<svg width="45" height="44" viewBox="0 0 45 44" fill="none" xmlns="http://www.w3.org/2000/svg">
<path opacity="0.39" d="M23.0078 39.7422C32.4145 39.7422 40.0401 31.7988 40.0401 22.0002C40.0401 12.2016 32.4145 4.2583 23.0078 4.2583C13.6012 4.2583 5.97559 12.2016 5.97559 22.0002C5.97559 31.7988 13.6012 39.7422 23.0078 39.7422Z" fill="white"/>
<g clip-path="url(#clip0_910_61)">
<path d="M22.2208 43.0603C33.8955 43.0603 43.3596 33.5961 43.3596 21.9215C43.3596 10.2469 33.8955 0.782715 22.2208 0.782715C10.5462 0.782715 1.08203 10.2469 1.08203 21.9215C1.08203 33.5961 10.5462 43.0603 22.2208 43.0603Z" stroke="black" stroke-width="1.5" stroke-miterlimit="10" stroke-linecap="round" stroke-linejoin="round"/>
<path d="M8.91094 19.8859C10.3811 19.8859 11.5729 18.6941 11.5729 17.2239C11.5729 15.7538 10.3811 14.562 8.91094 14.562C7.44081 14.562 6.24902 15.7538 6.24902 17.2239C6.24902 18.6941 7.44081 19.8859 8.91094 19.8859Z" stroke="black" stroke-width="0.28392" stroke-miterlimit="10"/>
<path d="M14.7049 13.7789C16.175 13.7789 17.3668 12.5871 17.3668 11.117C17.3668 9.64686 16.175 8.45508 14.7049 8.45508C13.2348 8.45508 12.043 9.64686 12.043 11.117C12.043 12.5871 13.2348 13.7789 14.7049 13.7789Z" stroke="black" stroke-width="0.28392" stroke-miterlimit="10"/>
<path d="M23.0037 11.1173C24.4739 11.1173 25.6656 9.92552 25.6656 8.45538C25.6656 6.98524 24.4739 5.79346 23.0037 5.79346C21.5336 5.79346 20.3418 6.98524 20.3418 8.45538C20.3418 9.92552 21.5336 11.1173 23.0037 11.1173Z" stroke="black" stroke-width="0.28392" stroke-miterlimit="10"/>
<path d="M31.1453 13.7789C32.6155 13.7789 33.8072 12.5871 33.8072 11.117C33.8072 9.64686 32.6155 8.45508 31.1453 8.45508C29.6752 8.45508 28.4834 9.64686 28.4834 11.117C28.4834 12.5871 29.6752 13.7789 31.1453 13.7789Z" stroke="black" stroke-width="0.28392" stroke-miterlimit="10"/>
<g opacity="0.15">
<g opacity="0.15">
<path d="M10.9475 17.2232C10.9475 18.3193 10.1645 19.1022 9.06846 19.1022C7.97237 19.1022 7.18945 18.3193 7.18945 17.2232C7.18945 16.1272 7.97237 15.3442 9.06846 15.3442C10.008 15.3442 10.9475 16.1272 10.9475 17.2232Z" fill="#FFBBA6" fill-opacity="0.71"/>
</g>
</g>
<g opacity="0.39">
<g opacity="0.39">
<path opacity="0.39" d="M16.5852 10.9605C16.5852 12.0566 15.8022 12.8396 14.7062 12.8396C13.6101 12.9961 12.8271 12.0566 12.8271 10.9605C12.8271 9.86446 13.6101 9.08154 14.7062 9.08154C15.8022 9.08154 16.5852 10.021 16.5852 10.9605Z" fill="#FFBBA6"/>
</g>
</g>
<g opacity="0.7">
<g opacity="0.7">
<path opacity="0.7" d="M24.7268 8.4542C24.7268 9.55028 23.9438 10.3332 22.8478 10.3332C21.7517 10.3332 20.9688 9.55028 20.9688 8.4542C20.9688 7.35811 21.7517 6.5752 22.8478 6.5752C23.9438 6.5752 24.7268 7.35811 24.7268 8.4542Z" fill="#FFBBA6"/>
</g>
</g>
<g opacity="0.8">
<g opacity="0.8">
<path opacity="0.8" d="M33.0266 10.9605C33.0266 12.0566 32.2436 12.8396 31.1476 12.8396C30.0515 12.8396 29.2686 12.0566 29.2686 10.9605C29.2686 9.86446 30.0515 9.08154 31.1476 9.08154C32.0871 9.08154 33.0266 10.021 33.0266 10.9605Z" fill="#FFBBA6"/>
</g>
</g>
</g>
<path d="M35.7821 19.8713C37.3498 19.8713 38.6208 18.6003 38.6208 17.0326C38.6208 15.4648 37.3498 14.1938 35.7821 14.1938C34.2143 14.1938 32.9434 15.4648 32.9434 17.0326C32.9434 18.6003 34.2143 19.8713 35.7821 19.8713Z" fill="#ECC4A0" stroke="black" stroke-width="0.340704" stroke-miterlimit="10"/>
<defs>
<clipPath id="clip0_910_61">
<rect width="44" height="44" fill="white" transform="translate(0.297852)"/>
</clipPath>
</defs>
</svg>
