<svg width="38" height="46" viewBox="0 0 38 46" fill="none" xmlns="http://www.w3.org/2000/svg">
<g clip-path="url(#clip0_910_109)">
<path opacity="0.39" d="M19.2523 41.0978C29.4514 41.0978 37.7194 32.8298 37.7194 22.6307C37.7194 12.4316 29.4514 4.16357 19.2523 4.16357C9.05317 4.16357 0.785156 12.4316 0.785156 22.6307C0.785156 32.8298 9.05317 41.0978 19.2523 41.0978Z" fill="white"/>
<path d="M6.57715 27.157C7.30135 27.157 27.0358 0.723633 27.0358 0.723633L22.6906 17.5613L31.9242 17.7424L11.6466 44.5378L16.3539 27.157H6.57715Z" stroke="black" stroke-width="1.33724" stroke-miterlimit="10" stroke-linecap="round" stroke-linejoin="round"/>
<path d="M8.0258 36.9334C3.86165 33.6745 0.964844 28.424 0.964844 22.6304C0.964844 12.8537 8.56895 5.06854 18.1646 4.52539" stroke="black" stroke-width="1.5" stroke-miterlimit="10" stroke-linecap="round" stroke-linejoin="round"/>
<path d="M29.7527 7.96533C34.279 11.2242 37.3568 16.6557 37.3568 22.6304C37.3568 32.045 30.1148 39.8302 20.7002 40.7354" stroke="black" stroke-width="1.5" stroke-miterlimit="10" stroke-linecap="round" stroke-linejoin="round"/>
<path d="M4.40465 24.9851C4.40465 24.9851 2.23204 9.59584 18.3455 7.24219L4.40465 24.9851Z" fill="#ECC4A0" stroke="black" stroke-width="1.33724" stroke-miterlimit="10"/>
</g>
<defs>
<clipPath id="clip0_910_109">
<rect width="37.4774" height="45.2625" fill="white" transform="translate(0.422852)"/>
</clipPath>
</defs>
</svg>
