<svg width="46" height="44" viewBox="0 0 46 44" fill="none" xmlns="http://www.w3.org/2000/svg">
<path opacity="0.39" d="M22.7638 39.8908C32.8134 39.8908 40.9602 31.744 40.9602 21.6944C40.9602 11.6448 32.8134 3.49805 22.7638 3.49805C12.7142 3.49805 4.56738 11.6448 4.56738 21.6944C4.56738 31.744 12.7142 39.8908 22.7638 39.8908Z" fill="white"/>
<path d="M19.5532 20.4457L17.4124 19.0185C16.5204 18.4833 15.4501 18.3049 14.3797 18.6617L3.85434 22.0512C2.42717 22.5864 1.53519 23.8352 1.35679 25.2623L1 33.8254C1 35.0741 1.53519 36.3229 2.60556 36.8581L8.84942 40.7828C9.56301 41.318 10.6334 41.4964 11.5254 41.318L19.1964 39.534" stroke="black" stroke-width="1.5" stroke-miterlimit="10" stroke-linecap="round" stroke-linejoin="round"/>
<path d="M4.39062 24.0132L10.9913 27.5811L16.8783 25.7971" stroke="black" stroke-width="1.30104" stroke-miterlimit="10" stroke-linecap="round" stroke-linejoin="round"/>
<path d="M10.9893 27.5811V38.82" stroke="black" stroke-width="1.30104" stroke-miterlimit="10" stroke-linecap="round" stroke-linejoin="round"/>
<path d="M22.9414 24.0132L29.5421 27.5811L39.889 24.37" stroke="black" stroke-width="1.30104" stroke-miterlimit="10" stroke-linecap="round" stroke-linejoin="round"/>
<path d="M29.543 27.5811V38.82" stroke="black" stroke-width="1.30104" stroke-miterlimit="10" stroke-linecap="round" stroke-linejoin="round"/>
<path d="M10.6348 17.5908V9.02782C10.6348 6.53028 12.2403 4.38952 14.5595 3.67594L22.9441 1.1784C24.3713 0.821604 25.9768 1 27.2256 1.71358L33.4695 5.4599C35.4318 6.53028 36.3238 8.31423 36.3238 10.2766V16.8772" stroke="black" stroke-width="1.5" stroke-miterlimit="10" stroke-linecap="round" stroke-linejoin="round"/>
<path d="M14.9141 7.60107L20.9795 10.9906L31.5049 7.77947" stroke="black" stroke-width="1.30104" stroke-miterlimit="10" stroke-linecap="round" stroke-linejoin="round"/>
<path d="M20.7998 18.4829L20.9782 10.9902" stroke="black" stroke-width="1.30104" stroke-miterlimit="10" stroke-linecap="round" stroke-linejoin="round"/>
<path d="M41.6172 38.6287L31.627 42.1966C30.3782 42.5534 29.1295 42.5534 28.0591 42.0183L21.9936 38.8071C20.5665 38.0935 19.4961 36.488 19.4961 34.704V26.6762C19.4961 24.7138 20.9233 22.9299 22.7072 22.2163L32.6974 19.362C33.7678 19.0052 34.8381 19.1836 35.7301 19.5404L41.7956 22.0379C43.5796 22.7515 44.6499 24.3571 44.6499 26.3194V34.3472C44.6499 36.1312 43.4012 37.9151 41.6172 38.6287Z" stroke="black" stroke-width="1.5" stroke-miterlimit="10" stroke-linecap="round" stroke-linejoin="round"/>
<path d="M31.5049 36.3223V30.2569C31.5049 29.7217 31.8617 29.1865 32.5753 29.0081L40.2463 26.5105C41.1383 26.1537 42.0302 26.6889 42.0302 27.4025V33.468C42.0302 34.0032 41.6735 34.5384 40.9599 34.7168L33.2888 37.2143C32.3969 37.5711 31.5049 37.0359 31.5049 36.3223Z" fill="#ECC4A0" stroke="black" stroke-width="1.30104" stroke-miterlimit="10"/>
</svg>
