<svg width="42" height="54" viewBox="0 0 42 54" fill="none" xmlns="http://www.w3.org/2000/svg">
<path opacity="0.39" d="M21.024 46.3106C32.29 46.3106 41.4229 37.1777 41.4229 25.9117C41.4229 14.6456 32.29 5.5127 21.024 5.5127C9.75793 5.5127 0.625 14.6456 0.625 25.9117C0.625 37.1777 9.75793 46.3106 21.024 46.3106Z" fill="white"/>
<path d="M19.8702 11.585L3.72363 31.1111H18.3682L16.6785 44.0659L32.825 24.7275H18.3682L19.8702 11.585Z" stroke="black" stroke-width="1.5" stroke-miterlimit="10" stroke-linecap="round" stroke-linejoin="round"/>
<path d="M27.9438 1.0708L23.25 6.70333H27.5683L27.005 10.6461L31.8865 4.82582H27.5683L27.9438 1.0708Z" fill="#ECC4A0" stroke="black" stroke-width="0.5" stroke-miterlimit="10"/>
<path d="M10.4828 43.1265L5.78906 48.9467H9.91958L9.54408 52.7018L14.2379 47.0692H9.91958L10.4828 43.1265Z" fill="#ECC4A0" stroke="black" stroke-width="0.5" stroke-miterlimit="10"/>
</svg>
