<svg width="48" height="47" viewBox="0 0 48 47" fill="none" xmlns="http://www.w3.org/2000/svg">
<g clip-path="url(#clip0_910_100)">
<path opacity="0.39" d="M23.8546 46.2487C36.6256 46.2487 46.9786 35.8956 46.9786 23.1246C46.9786 10.3535 36.6256 0.000488281 23.8546 0.000488281C11.0835 0.000488281 0.730469 10.3535 0.730469 23.1246C0.730469 35.8956 11.0835 46.2487 23.8546 46.2487Z" fill="white"/>
<path d="M41.3481 5.22852C41.7503 5.42959 41.9514 5.83175 41.9514 6.23391C41.9514 10.2555 40.946 14.076 38.9352 17.6954C37.5276 20.7116 35.5169 23.3256 33.1039 25.5375C32.7017 25.9397 32.7017 26.1407 32.7017 26.5429C32.5007 30.7655 30.892 34.385 28.278 37.8033C27.8759 38.2055 27.6748 38.6076 27.2726 39.0098C27.0715 39.2109 26.6694 39.4119 26.4683 39.2109C26.0661 39.0098 26.0661 38.8087 25.8651 38.4065C25.664 36.5968 25.2618 34.7871 25.0607 32.7763C24.8597 32.9774 24.6586 33.1785 24.4575 33.3796C24.0554 33.7817 23.6532 33.7817 23.251 33.3796C20.0338 30.3634 16.8165 27.1461 13.5992 24.1299C13.1971 23.7278 13.1971 23.3256 13.5992 22.9235C13.8003 22.7224 14.0014 22.5213 14.2025 22.3202C13.1971 22.1192 12.3928 22.1191 11.5885 21.9181C10.5831 21.717 9.57766 21.717 8.57227 21.5159C8.17011 21.5159 7.96903 21.3148 7.96903 20.9127C7.76795 20.5105 7.96903 20.3094 8.17011 20.1084C10.7841 17.6954 13.5992 15.8857 17.0176 15.0814C18.2241 14.8803 19.4305 14.6792 20.637 14.4781C21.0392 14.4781 21.2402 14.2771 21.4413 14.076C25.4629 9.85333 30.2888 7.03823 35.7179 5.83175C36.9244 5.63067 38.1309 5.42959 39.3374 5.22852H39.5384C40.3427 5.22852 40.7449 5.22852 41.3481 5.22852ZM15.2079 23.3256C18.023 26.1407 21.0392 29.1569 23.8543 31.972C24.2564 31.5699 24.6586 31.1677 25.0607 30.7655C27.4737 28.7548 29.6856 26.744 32.0985 24.5321C36.7233 20.1084 39.5384 14.8803 40.3428 8.64686C40.3428 8.04362 40.5438 7.44038 40.5438 6.63607C40.3427 6.63607 40.3428 6.63607 40.3428 6.63607C39.1363 6.83715 37.9298 6.83715 36.7233 7.03823C31.4953 8.2447 26.8705 10.6576 23.05 14.4781C21.6424 16.0868 20.2349 17.6954 18.8273 19.103C17.6208 20.5105 16.4143 21.9181 15.2079 23.3256ZM10.1809 20.1084C10.382 20.1084 10.382 20.1084 10.1809 20.1084C11.9906 20.3094 13.5992 20.7116 15.2079 20.9127C15.409 20.9127 15.61 20.9127 15.61 20.7116C16.6154 19.7062 17.6208 18.4997 18.6262 17.4943C19.0284 16.8911 19.2295 16.4889 19.6316 16.0868C16.0122 16.4889 12.996 17.6954 10.1809 20.1084ZM31.0931 27.5483C30.892 27.7494 30.892 27.7494 30.691 27.7494C29.2834 28.9558 27.8759 30.1623 26.4683 31.3688C26.2672 31.5699 26.2672 31.7709 26.2672 31.972C26.4683 32.7763 26.4683 33.5807 26.6694 34.385C26.8705 35.1893 26.8705 35.9936 27.0715 36.7979C29.2834 34.1839 30.691 30.9666 31.0931 27.5483Z" fill="black"/>
<path d="M35.3148 15.4836C35.3148 17.4944 33.7062 19.3041 31.4943 19.3041C29.4835 19.3041 27.6738 17.6955 27.6738 15.4836C27.6738 13.4728 29.2825 11.6631 31.4943 11.6631C33.7062 11.6631 35.3148 13.4728 35.3148 15.4836ZM31.6954 17.6955C32.9019 17.6955 33.9073 16.6901 33.9073 15.4836C33.9073 14.2771 32.9019 13.2717 31.6954 13.2717C30.4889 13.2717 29.4835 14.2771 29.4835 15.4836C29.4835 16.6901 30.4889 17.6955 31.6954 17.6955Z" fill="black"/>
<path d="M5.95703 40.2167C6.35919 39.2113 6.56027 38.4069 6.96243 37.4015C7.56566 35.3908 8.36998 33.38 9.37537 31.3692C10.3808 29.5595 12.5926 28.5541 14.6034 29.1573C16.6142 29.7605 18.0218 31.5703 18.0218 33.581C18.0218 35.3908 17.2175 36.7983 15.8099 37.6026C14.4023 38.4069 12.9948 39.0102 11.3862 39.6134C9.97861 40.2167 8.57106 40.6188 7.16351 41.021C6.56027 41.222 6.35919 41.222 5.95703 40.6188C5.95703 40.6188 5.95703 40.4177 5.95703 40.2167Z" fill="#ECC4A0" stroke="black" stroke-width="1.58792" stroke-miterlimit="10"/>
</g>
<defs>
<clipPath id="clip0_910_100">
<rect width="46.4492" height="46.4492" fill="white" transform="translate(0.729492)"/>
</clipPath>
</defs>
</svg>
