<svg width="34" height="44" viewBox="0 0 34 44" fill="none" xmlns="http://www.w3.org/2000/svg">
<g clip-path="url(#clip0_910_45)">
<path opacity="0.39" d="M15.2213 36.1815C23.2529 36.1815 29.7639 29.5191 29.7639 21.3007C29.7639 13.0823 23.2529 6.41992 15.2213 6.41992C7.18965 6.41992 0.678711 13.0823 0.678711 21.3007C0.678711 29.5191 7.18965 36.1815 15.2213 36.1815Z" fill="white"/>
<path d="M1.82031 10.9419C1.82031 10.9419 10.8025 9.77478 10.2322 0.875488C10.2322 0.875488 9.51933 10.0666 18.6441 10.9419C18.6441 10.9419 10.9451 9.77478 10.2322 20.4248C10.2322 20.4248 10.9451 9.92067 1.82031 10.9419Z" stroke="black" stroke-width="1.32336" stroke-miterlimit="10" stroke-linecap="round" stroke-linejoin="round"/>
<path d="M8.80664 29.4705C8.80664 29.4705 21.7809 27.8657 20.9255 15.0273C20.9255 15.0273 19.9274 28.3033 32.9017 29.4705C32.9017 29.4705 21.9235 27.7198 20.9255 43.1841C20.7829 43.1841 21.7809 28.1574 8.80664 29.4705Z" stroke="black" stroke-width="1.32336" stroke-miterlimit="10" stroke-linecap="round" stroke-linejoin="round"/>
<path d="M25.6308 12.5469C27.4418 12.5469 28.91 11.0446 28.91 9.19141C28.91 7.33823 27.4418 5.83594 25.6308 5.83594C23.8197 5.83594 22.3516 7.33823 22.3516 9.19141C22.3516 11.0446 23.8197 12.5469 25.6308 12.5469Z" fill="#ECC4A0" stroke="black" stroke-width="1.32336" stroke-miterlimit="10"/>
</g>
<defs>
<clipPath id="clip0_910_45">
<rect width="32.9347" height="43.9129" fill="white" transform="translate(0.678711)"/>
</clipPath>
</defs>
</svg>
